<svg width="34" height="34" viewBox="0 0 34 34" fill="none" xmlns="http://www.w3.org/2000/svg">
<path d="M33.0039 12.9609H27.459L23.4746 7.64844C23.6296 7.40495 23.7513 7.14486 23.8398 6.86816C23.9284 6.59147 23.9727 6.29818 23.9727 5.98828C23.9727 5.16927 23.6794 4.46647 23.0928 3.87988C22.5062 3.29329 21.8034 3 20.9844 3C20.1654 3 19.4626 3.29329 18.876 3.87988C18.2894 4.46647 17.9961 5.16927 17.9961 5.98828C17.9961 6.82943 18.2894 7.53776 18.876 8.11328C19.4626 8.6888 20.1654 8.97656 20.9844 8.97656C21.1393 8.97656 21.2887 8.96549 21.4326 8.94336C21.5765 8.92122 21.7259 8.88802 21.8809 8.84375L24.9688 12.9609H9.03125L12.1191 8.84375C12.2741 8.88802 12.4235 8.92122 12.5674 8.94336C12.7113 8.96549 12.8607 8.97656 13.0156 8.97656C13.8346 8.97656 14.5374 8.6888 15.124 8.11328C15.7106 7.53776 16.0039 6.82943 16.0039 5.98828C16.0039 5.16927 15.7106 4.46647 15.124 3.87988C14.5374 3.29329 13.8346 3 13.0156 3C12.1966 3 11.4938 3.29329 10.9072 3.87988C10.3206 4.46647 10.0273 5.16927 10.0273 5.98828C10.0273 6.29818 10.0716 6.59147 10.1602 6.86816C10.2487 7.14486 10.3704 7.40495 10.5254 7.64844L6.54102 12.9609H0.996094C0.730469 12.9609 0.498047 13.0605 0.298828 13.2598C0.0996094 13.459 0 13.6914 0 13.957C0 14.2448 0.0996094 14.4827 0.298828 14.6709C0.498047 14.859 0.730469 14.9531 0.996094 14.9531H2.29102L2.78906 16.9453H31.2109L31.709 14.9531H33.0039C33.2695 14.9531 33.502 14.859 33.7012 14.6709C33.9004 14.4827 34 14.2448 34 13.957C34 13.6914 33.9004 13.459 33.7012 13.2598C33.502 13.0605 33.2695 12.9609 33.0039 12.9609ZM19.9883 5.98828C19.9883 5.72266 20.0879 5.49023 20.2871 5.29102C20.4863 5.0918 20.7188 4.99219 20.9844 4.99219C21.25 4.99219 21.4824 5.0918 21.6816 5.29102C21.8809 5.49023 21.9805 5.72266 21.9805 5.98828C21.9805 6.27604 21.8809 6.514 21.6816 6.70215C21.4824 6.8903 21.25 6.98438 20.9844 6.98438C20.7188 6.98438 20.4863 6.8903 20.2871 6.70215C20.0879 6.514 19.9883 6.27604 19.9883 5.98828ZM13.0156 4.99219C13.2812 4.99219 13.5137 5.0918 13.7129 5.29102C13.9121 5.49023 14.0117 5.72266 14.0117 5.98828C14.0117 6.27604 13.9121 6.514 13.7129 6.70215C13.5137 6.8903 13.2812 6.98438 13.0156 6.98438C12.75 6.98438 12.5176 6.8903 12.3184 6.70215C12.1191 6.514 12.0195 6.27604 12.0195 5.98828C12.0195 5.72266 12.1191 5.49023 12.3184 5.29102C12.5176 5.0918 12.75 4.99219 13.0156 4.99219ZM5.71094 28.6328C5.86589 29.2969 6.21452 29.8392 6.75684 30.2598C7.29915 30.6803 7.91341 30.8906 8.59961 30.8906H25.4004C26.0866 30.8906 26.7008 30.6803 27.2432 30.2598C27.7855 29.8392 28.1341 29.2969 28.2891 28.6328L30.7129 18.9375H3.28711L5.71094 28.6328ZM21.9805 21.9258C21.9805 21.6602 22.0801 21.4277 22.2793 21.2285C22.4785 21.0293 22.7109 20.9297 22.9766 20.9297C23.2422 20.9297 23.4746 21.0293 23.6738 21.2285C23.873 21.4277 23.9727 21.6602 23.9727 21.9258V27.9023C23.9727 28.1901 23.873 28.4281 23.6738 28.6162C23.4746 28.8044 23.2422 28.8984 22.9766 28.8984C22.7109 28.8984 22.4785 28.8044 22.2793 28.6162C22.0801 28.4281 21.9805 28.1901 21.9805 27.9023V21.9258ZM16.0039 21.9258C16.0039 21.6602 16.1035 21.4277 16.3027 21.2285C16.502 21.0293 16.7344 20.9297 17 20.9297C17.2656 20.9297 17.498 21.0293 17.6973 21.2285C17.8965 21.4277 17.9961 21.6602 17.9961 21.9258V27.9023C17.9961 28.1901 17.8965 28.4281 17.6973 28.6162C17.498 28.8044 17.2656 28.8984 17 28.8984C16.7344 28.8984 16.502 28.8044 16.3027 28.6162C16.1035 28.4281 16.0039 28.1901 16.0039 27.9023V21.9258ZM10.0273 21.9258C10.0273 21.6602 10.127 21.4277 10.3262 21.2285C10.5254 21.0293 10.7578 20.9297 11.0234 20.9297C11.2891 20.9297 11.5215 21.0293 11.7207 21.2285C11.9199 21.4277 12.0195 21.6602 12.0195 21.9258V27.9023C12.0195 28.1901 11.9199 28.4281 11.7207 28.6162C11.5215 28.8044 11.2891 28.8984 11.0234 28.8984C10.7578 28.8984 10.5254 28.8044 10.3262 28.6162C10.127 28.4281 10.0273 28.1901 10.0273 27.9023V21.9258Z" fill="black"/>
</svg>
